<svg width="16" height="16" viewBox="0 0 16 16" fill="none" xmlns="http://www.w3.org/2000/svg">
<path fill-rule="evenodd" clip-rule="evenodd" d="M9.05429 1.77292C8.58541 0.963718 7.41476 0.963713 6.94587 1.77292L0.821359 12.3426C0.350379 13.1554 0.940933 14.166 1.87557 14.166H14.1246C15.0592 14.166 15.6498 13.1554 15.1788 12.3426L9.05429 1.77292ZM7.99992 5.41748C8.32208 5.41748 8.58325 5.67865 8.58325 6.00081V8.66748C8.58325 8.98965 8.32208 9.25081 7.99992 9.25081C7.67775 9.25081 7.41659 8.98965 7.41659 8.66748V6.00081C7.41659 5.67865 7.67775 5.41748 7.99992 5.41748ZM7.41659 11.3341C7.41659 11.012 7.67775 10.7508 7.99992 10.7508H8.00659C8.32875 10.7508 8.58992 11.012 8.58992 11.3341C8.58992 11.6563 8.32875 11.9175 8.00659 11.9175H7.99992C7.67775 11.9175 7.41659 11.6563 7.41659 11.3341Z" fill="#F77234"/>
</svg>
