<svg width="17" height="17" viewBox="0 0 17 17" fill="none" xmlns="http://www.w3.org/2000/svg">
<g clip-path="url(#clip0_1287_22508)">
<path fill-rule="evenodd" clip-rule="evenodd" d="M9.88132 2.59958C9.41243 1.79038 8.24179 1.79037 7.7729 2.59958L1.64839 13.1693C1.17741 13.9821 1.76796 14.9927 2.70259 14.9927H14.9516C15.8863 14.9927 16.4768 13.9821 16.0058 13.1693L9.88132 2.59958ZM8.82695 6.24414C9.14911 6.24414 9.41028 6.50531 9.41028 6.82747V9.49414C9.41028 9.81631 9.14911 10.0775 8.82695 10.0775C8.50478 10.0775 8.24361 9.81631 8.24361 9.49414V6.82747C8.24361 6.50531 8.50478 6.24414 8.82695 6.24414ZM8.24361 12.1608C8.24361 11.8386 8.50478 11.5775 8.82695 11.5775H8.83361C9.15578 11.5775 9.41695 11.8386 9.41695 12.1608C9.41695 12.483 9.15578 12.7441 8.83361 12.7441H8.82695C8.50478 12.7441 8.24361 12.483 8.24361 12.1608Z" fill="#F04251"/>
</g>
<defs>
<clipPath id="clip0_1287_22508">
<rect width="16" height="16" fill="white" transform="translate(0.827148 0.827148)"/>
</clipPath>
</defs>
</svg>
