<svg width="20" height="20" viewBox="0 0 20 20" fill="none" xmlns="http://www.w3.org/2000/svg">
<path fill-rule="evenodd" clip-rule="evenodd" d="M10.081 1.04168C10.5768 1.04154 10.9333 1.04144 11.2662 1.10737L11.2662 4.85161C11.2662 5.11432 11.2661 5.34797 11.282 5.54185C11.2989 5.74865 11.3369 5.96457 11.4442 6.17522C11.6008 6.48256 11.8507 6.73244 12.158 6.88903C12.3687 6.99636 12.5846 7.03435 12.7914 7.05125C12.9853 7.06709 13.2189 7.06708 13.4816 7.06706L17.226 7.06706C17.2919 7.4 17.2918 7.75648 17.2917 8.25234L17.2917 14.3601C17.2917 15.0375 17.2917 15.5838 17.2555 16.0263C17.2183 16.4818 17.1397 16.8819 16.9511 17.2521C16.6515 17.8401 16.1734 18.3182 15.5854 18.6178C15.2152 18.8064 14.8151 18.885 14.3596 18.9222C13.9171 18.9584 13.3708 18.9584 12.6934 18.9584H7.30656C6.6292 18.9584 6.08286 18.9584 5.64044 18.9222C5.18491 18.885 4.7848 18.8064 4.41461 18.6178C3.82661 18.3182 3.34854 17.8401 3.04894 17.2521C2.86032 16.8819 2.78169 16.4818 2.74447 16.0263C2.70832 15.5838 2.70833 15.0375 2.70833 14.3602V5.63994C2.70833 4.96259 2.70832 4.41623 2.74447 3.97381C2.78169 3.51828 2.86032 3.11816 3.04894 2.74798C3.34854 2.15997 3.82661 1.68191 4.41461 1.3823C4.7848 1.19369 5.18491 1.11505 5.64044 1.07783C6.08287 1.04169 6.62921 1.04169 7.30658 1.0417L10.081 1.04168ZM13.3586 11.6919C13.6027 11.4479 13.6027 11.0521 13.3586 10.8081C13.1145 10.564 12.7188 10.564 12.4747 10.8081L9.16667 14.1161L7.94194 12.8914C7.69786 12.6473 7.30213 12.6473 7.05806 12.8914C6.81398 13.1355 6.81398 13.5312 7.05806 13.7753L8.72472 15.4419C8.9688 15.686 9.36453 15.686 9.60861 15.4419L13.3586 11.6919Z" fill="#9D9DA4"/>
<path d="M15.9875 5.10359C16.2662 5.38212 16.4826 5.59843 16.6545 5.81706H13.5046C13.2119 5.81706 13.03 5.81658 12.8932 5.8054C12.7639 5.79484 12.7307 5.77791 12.7255 5.77529C12.6534 5.73853 12.5947 5.67987 12.558 5.60773C12.5553 5.60258 12.5384 5.56934 12.5278 5.44006C12.5167 5.30326 12.5162 5.12133 12.5162 4.82864V1.67881C12.7349 1.85071 12.9512 2.06719 13.2298 2.34596L15.9875 5.10359Z" fill="#9D9DA4"/>
</svg>
