<svg width="20" height="20" viewBox="0 0 20 20" fill="none" xmlns="http://www.w3.org/2000/svg">
<path d="M13.5264 1.875C14.2037 1.87499 14.7509 1.87499 15.1934 1.91113C15.6487 1.94837 16.0489 2.02727 16.4189 2.21582C17.0067 2.51539 17.4846 2.99326 17.7842 3.58105C17.9727 3.95111 18.0516 4.3513 18.0889 4.80664C18.125 5.24905 18.125 5.7963 18.125 6.47363V13.5264C18.125 14.2037 18.125 14.751 18.0889 15.1934C18.0516 15.6487 17.9727 16.0489 17.7842 16.4189C17.4846 17.0067 17.0067 17.4846 16.4189 17.7842C16.0489 17.9727 15.6487 18.0516 15.1934 18.0889C14.7509 18.125 14.2037 18.125 13.5264 18.125H6.47363C5.7963 18.125 5.24905 18.125 4.80664 18.0889C4.3513 18.0516 3.95111 17.9727 3.58105 17.7842C2.99326 17.4846 2.51539 17.0067 2.21582 16.4189C2.02727 16.0489 1.94837 15.6487 1.91113 15.1934C1.87499 14.7509 1.87499 14.2037 1.875 13.5264V6.47363C1.87499 5.79628 1.87499 5.24906 1.91113 4.80664C1.94837 4.3513 2.02727 3.95111 2.21582 3.58105C2.51539 2.99326 2.99326 2.51539 3.58105 2.21582C3.95111 2.02727 4.3513 1.94837 4.80664 1.91113C5.02776 1.89307 5.27533 1.8844 5.55176 1.87988L6.47363 1.875H13.5264ZM6.1875 6.70508V8.59766H5.14258V9.81836H6.1875V13.9766H7.60645V9.81836H8.87109V8.59766H7.60645V6.70508H6.1875ZM9.88574 6.02344V13.8223H11.3047V11.1387C11.3047 10.3467 11.7882 9.73053 12.4922 9.73047C13.0641 9.73047 13.4276 10.2363 13.4277 11.083V13.8223H14.8574V10.9072C14.8573 9.52134 13.9328 8.53125 12.5469 8.53125C12.2168 8.53139 11.6675 8.69712 11.3047 9.16992V6.02344H9.88574Z" fill="#9D9DA4"/>
</svg>
