<svg width="20" height="20" viewBox="0 0 20 20" fill="none" xmlns="http://www.w3.org/2000/svg">
<path d="M13.0324 1.57292C13.2393 1.3661 13.5198 1.25 13.8122 1.25C14.1047 1.25 14.3852 1.36615 14.592 1.57282L18.4269 5.40521C18.6337 5.61209 18.75 5.89276 18.75 6.18519C18.75 6.47762 18.6339 6.75813 18.4271 6.96502L15.916 9.47674L10.5223 4.08301L13.0324 1.57292Z" fill="#9D9DA4"/>
<path d="M9.63843 4.96689L2.44994 12.1554C2.25346 12.352 2.13891 12.6151 2.12804 12.8917L1.25704 17.5706C1.25236 17.5957 1.25 17.6213 1.25 17.6468C1.25 17.9394 1.36623 18.22 1.5731 18.4269C1.77997 18.6338 2.06057 18.75 2.35316 18.75C2.37874 18.75 2.40426 18.7476 2.42941 18.743L7.10831 17.872C7.38497 17.8611 7.64822 17.7463 7.84478 17.5499L15.0322 10.3607L9.63843 4.96689Z" fill="#9D9DA4"/>
</svg>
