<svg width="25" height="25" viewBox="0 0 25 25" fill="none" xmlns="http://www.w3.org/2000/svg">
<path d="M14.7305 2.54297V6.67351C14.7305 7.23356 14.7305 7.51359 14.8395 7.7275C14.9353 7.91566 15.0883 8.06864 15.2765 8.16452C15.4904 8.27351 15.7704 8.27351 16.3305 8.27351H20.461M9.73047 15.2734L12.7305 18.2734M12.7305 18.2734L15.7305 15.2734M12.7305 18.2734L12.7305 12.2734M14.7305 2.27344H9.53047C7.85031 2.27344 7.01023 2.27344 6.3685 2.60042C5.80401 2.88804 5.34507 3.34698 5.05745 3.91147C4.73047 4.5532 4.73047 5.39328 4.73047 7.07344V17.4734C4.73047 19.1536 4.73047 19.9937 5.05745 20.6354C5.34507 21.1999 5.80401 21.6588 6.3685 21.9465C7.01023 22.2734 7.85031 22.2734 9.53047 22.2734H15.9305C17.6106 22.2734 18.4507 22.2734 19.0924 21.9465C19.6569 21.6588 20.1159 21.1999 20.4035 20.6354C20.7305 19.9937 20.7305 19.1536 20.7305 17.4734V8.27344L14.7305 2.27344Z" stroke="white" stroke-linecap="round" stroke-linejoin="round"/>
</svg>
