<svg width="173" height="60" viewBox="0 0 173 60" fill="none" xmlns="http://www.w3.org/2000/svg">
<g clip-path="url(#clip0_401_13588)">
<path d="M41.9798 24.7673L34.4774 14.8934C34.3623 14.7399 34.1795 14.6532 33.9899 14.6532H10.1691C6.71581 14.6799 4.40686 16.7414 4.40686 19.6902V25.6613H41.9121C42.2168 25.6613 42.3928 25.3144 42.21 25.0742L41.9798 24.7673Z" fill="white"/>
<path d="M172.132 14.6421H155.996V25.6502H164.236C164.927 25.6502 165.259 25.4767 165.645 24.943L172.362 15.3293L172.443 15.2158C172.612 14.9757 172.443 14.6421 172.138 14.6421H172.132Z" fill="white"/>
<path d="M126.704 29.4574V19.6836C126.704 19.6836 126.683 17.8155 125.187 16.3545C124.225 15.4204 122.648 14.6532 120.082 14.6532H89.598C89.3407 14.6532 89.124 14.8066 89.0292 15.0268C89.0157 15.0602 89.0021 15.1002 88.9954 15.1402C88.9886 15.1803 88.9818 15.2203 88.9818 15.2603V25.6613H113.798C113.839 25.6613 113.879 25.668 113.92 25.6813C113.947 25.688 113.974 25.7013 114.001 25.7214C114.001 25.7214 114.008 25.7214 114.015 25.728C114.082 25.7747 114.13 25.8414 114.157 25.9215C114.164 25.9415 114.17 25.9682 114.17 25.9949C114.17 26.0082 114.17 26.0216 114.17 26.0349V34.4144C114.17 34.6146 114.001 34.7814 113.798 34.7814H101.42C101.217 34.7814 101.048 34.6146 101.048 34.4144V28.4567C101.048 28.3633 101.028 28.2766 100.994 28.2032C100.899 27.9964 100.682 27.8496 100.432 27.8496H88.9818V59.0459C88.9818 59.0859 88.9818 59.1326 88.9954 59.166C89.0021 59.206 89.0157 59.246 89.0292 59.2794C89.0902 59.4195 89.1985 59.5329 89.3407 59.593C89.4219 59.6263 89.51 59.653 89.598 59.653H100.432C100.527 59.653 100.615 59.633 100.689 59.593C100.825 59.5263 100.94 59.4195 101.001 59.2794C101.014 59.246 101.028 59.206 101.034 59.166C101.041 59.126 101.048 59.0859 101.048 59.0459V45.576H120.501C120.549 45.576 120.596 45.576 120.644 45.576C121.829 45.5626 123.034 45.109 124.056 44.3951C124.137 44.3351 124.219 44.2817 124.3 44.215C124.381 44.1549 124.456 44.0882 124.537 44.0282C124.652 43.9348 124.767 43.8347 124.876 43.7279C126 42.6672 126.744 41.2595 126.717 39.8317V29.4708L126.704 29.4574Z" fill="white"/>
<path d="M84.0325 19.8256C83.8836 18.1377 83.0169 16.7233 81.7236 15.7959C81.6897 15.7693 81.6559 15.7492 81.622 15.7226C81.5746 15.6892 81.5205 15.6558 81.4663 15.6225C81.4528 15.6158 81.4392 15.6091 81.4324 15.6025C81.3173 15.5291 81.1954 15.4557 81.0668 15.389C80.1662 14.9086 79.1099 14.6351 77.9792 14.6284H51.9984C50.5223 14.6284 49.1748 15.0954 48.1253 15.896C48.0711 15.936 48.0237 15.9761 47.9763 16.0161C47.9019 16.0762 47.8341 16.1362 47.7664 16.1962C47.7055 16.2496 47.6446 16.3097 47.5836 16.3697C46.6695 17.2637 46.0737 18.4579 45.9518 19.8323C45.9518 19.8656 45.9518 19.9056 45.9518 19.939V25.6632H72.7045C72.7586 25.6632 72.806 25.6766 72.8467 25.6899C72.8602 25.6899 72.867 25.6966 72.8805 25.7032C72.8941 25.7099 72.9144 25.7233 72.9279 25.7366C73.0159 25.8033 73.0769 25.9101 73.0769 26.0301V48.3933C73.0769 48.4934 73.0362 48.5868 72.9685 48.6535C72.9008 48.7202 72.806 48.7602 72.7045 48.7602H57.2663C57.2054 48.7602 57.1444 48.7469 57.0903 48.7135C57.0903 48.7135 57.0835 48.7135 57.0767 48.7135C57.0496 48.7002 57.0226 48.6802 57.0022 48.6601C56.9616 48.6201 56.9345 48.5734 56.9142 48.52C56.9007 48.48 56.8939 48.44 56.8939 48.4V28.4586C56.8939 28.3652 56.8736 28.2785 56.8397 28.2051C56.8059 28.1384 56.7653 28.0783 56.7179 28.0316C56.7043 28.0183 56.6908 28.0049 56.6772 27.9916C56.5689 27.9049 56.4335 27.8515 56.2845 27.8515H45.9382V53.4503C45.9382 53.884 45.9721 54.3043 46.0533 54.7113C46.0533 54.7313 46.0601 54.7513 46.0669 54.7713C46.0804 54.8514 46.1007 54.9314 46.1211 55.0048C46.1211 55.0315 46.1346 55.0582 46.1414 55.0849C46.1617 55.1583 46.182 55.2317 46.2023 55.2984C46.2091 55.3317 46.2226 55.3584 46.2294 55.3918C46.2632 55.5052 46.3039 55.6186 46.3513 55.7253C46.4258 55.9122 46.507 56.0923 46.6018 56.2724C46.6221 56.3125 46.6492 56.3591 46.6695 56.3992C46.6966 56.4459 46.7237 56.4993 46.7508 56.546C46.7711 56.5793 46.7914 56.6193 46.8117 56.6527C46.9268 56.8395 47.0555 57.0263 47.1909 57.1998C47.2315 57.2531 47.2789 57.3132 47.3263 57.3666C48.5113 58.7943 50.3395 59.6749 52.3031 59.6482H77.688C81.1007 59.6949 84.0935 57.0063 84.0529 53.4503V34.5231V23.9419V19.9523C84.0529 19.919 84.0529 19.879 84.0529 19.8456L84.0325 19.8256Z" fill="white"/>
<path d="M153.795 14.6421H130.495C130.421 14.6421 130.353 14.6554 130.285 14.6821C130.258 14.6888 130.231 14.7021 130.204 14.7155C130.008 14.8222 129.879 15.0224 129.879 15.2559V25.0431C129.879 25.3833 130.157 25.6502 130.495 25.6502H141.356C141.403 25.6502 141.444 25.6569 141.485 25.6769C141.593 25.7169 141.674 25.8036 141.708 25.9104C141.715 25.9304 141.722 25.9571 141.722 25.9838C141.722 25.9971 141.722 26.0105 141.722 26.0238V59.0348C141.722 59.0748 141.722 59.1215 141.735 59.1549C141.742 59.1949 141.756 59.2349 141.769 59.2683C141.83 59.4084 141.938 59.5218 142.081 59.5819C142.162 59.6152 142.25 59.6419 142.338 59.6419H153.172C153.51 59.6419 153.788 59.3684 153.788 59.0348V14.6421H153.795Z" fill="white"/>
<path d="M42.2575 51.3598C42.2575 51.233 42.2575 51.1062 42.2575 50.9795C42.2575 50.786 42.2372 50.5992 42.2236 50.4191C42.2169 50.3257 42.2033 50.2323 42.1898 50.1389C42.1898 50.1189 42.1898 50.0988 42.183 50.0788C42.1695 49.9921 42.1559 49.9054 42.1424 49.812C42.1424 49.7919 42.1356 49.7653 42.1288 49.7452C42.1153 49.6652 42.1018 49.5851 42.0815 49.5051C42.0815 49.485 42.0747 49.465 42.0679 49.445C42.0544 49.365 42.0341 49.2916 42.0137 49.2115C42.0137 49.1848 42.0002 49.1515 41.9934 49.1248C41.9731 49.0514 41.9596 48.9847 41.9393 48.9113C41.9393 48.9113 41.9393 48.8979 41.9393 48.8913C41.9325 48.8579 41.9189 48.8246 41.9054 48.7845C41.8919 48.7312 41.8715 48.6778 41.8512 48.6177C41.8377 48.5844 41.8309 48.551 41.8174 48.511C41.7903 48.4309 41.7632 48.3509 41.7361 48.2708C41.7226 48.2441 41.7158 48.2108 41.7023 48.1841C41.682 48.124 41.6549 48.0707 41.6346 48.0106C41.621 47.9773 41.6075 47.9439 41.5939 47.9106C41.5668 47.8438 41.5398 47.7771 41.5059 47.7104C41.4924 47.6837 41.4856 47.657 41.472 47.6304C41.4382 47.557 41.4043 47.4902 41.3705 47.4169C41.3569 47.3902 41.3434 47.3568 41.3299 47.3301C41.296 47.2701 41.2689 47.21 41.2351 47.15C41.2215 47.13 41.2147 47.1033 41.2012 47.0833C41.1606 47.0032 41.1132 46.9232 41.0726 46.8498C41.059 46.8298 41.0455 46.8031 41.0319 46.7831C40.9981 46.723 40.9574 46.663 40.9236 46.6029C40.91 46.5829 40.8965 46.5562 40.883 46.5362C40.8356 46.4562 40.7814 46.3828 40.734 46.3027C40.7272 46.2894 40.7137 46.276 40.7069 46.256C40.6595 46.1893 40.6189 46.1292 40.5715 46.0625C40.5579 46.0425 40.5444 46.0225 40.5241 46.0025C40.4699 45.9291 40.409 45.849 40.3548 45.7757C40.2939 45.7023 40.2329 45.6222 40.1788 45.5488C40.1381 45.5021 40.1043 45.4554 40.0637 45.4087C39.9553 45.282 39.8538 45.1485 39.7454 45.0218C39.6506 44.915 39.5626 44.8083 39.4678 44.7015C39.3865 44.6081 39.3053 44.5214 39.224 44.428C39.1292 44.3279 39.0412 44.2278 38.9464 44.1278C38.8178 43.9877 38.6823 43.8476 38.5469 43.7075C38.4589 43.6141 38.3641 43.5207 38.2761 43.4273C38.0933 43.2404 37.9172 43.0603 37.7344 42.8735C37.6396 42.7801 37.5448 42.68 37.45 42.5866C37.2604 42.3998 37.0776 42.213 36.888 42.0196C36.6036 41.7327 36.326 41.4458 36.0416 41.1522C35.1478 40.2249 33.8275 38.9039 32.3581 37.4562C31.9519 37.0559 31.532 36.6423 31.1055 36.2219C30.9362 36.0552 30.7669 35.8884 30.5976 35.7216C30.5096 35.6349 30.4216 35.5481 30.3336 35.4681C30.1643 35.3013 29.9882 35.1345 29.819 34.9677C26.711 31.9255 23.6031 28.9299 22.716 28.0693C22.6686 28.0226 22.6213 27.9892 22.5671 27.9559C22.4317 27.8758 22.2759 27.8291 22.1134 27.8291H5.89658C5.78824 27.8291 5.73408 27.9625 5.80856 28.0359L6.94611 29.1768L7.23049 29.457L13.4193 35.6816L25.8037 48.124C26 48.3242 25.9052 48.6444 25.6615 48.7245C25.6209 48.7378 25.5802 48.7445 25.5396 48.7445H1.11617C0.913038 48.7445 0.730218 48.8446 0.615109 48.998C0.574482 49.0514 0.547398 49.1114 0.527084 49.1715C0.527084 49.1915 0.513542 49.2115 0.513542 49.2315C0.506771 49.2716 0.5 49.3116 0.5 49.3516V59.0187C0.5 59.0187 0.5 59.0588 0.5 59.0788C0.513542 59.2122 0.574482 59.3323 0.655736 59.4257C0.669278 59.439 0.68282 59.4524 0.696362 59.4657C0.757303 59.5191 0.831785 59.5658 0.913038 59.5925C0.973978 59.6125 1.04169 59.6259 1.1094 59.6259H33.6582C35.9807 59.6259 38.249 58.7519 39.847 57.084C41.6887 55.1692 42.2304 53.0944 42.244 51.3397L42.2575 51.3598Z" fill="white"/>
<path d="M2.81011 4.92281C1.82829 4.92281 0.981904 4.46247 0.71106 3.62185L1.54391 3.35499C1.75381 3.97545 2.27519 4.16225 2.79656 4.16225C3.31794 4.16225 3.79192 3.97545 3.79192 3.62185C3.79192 3.24157 3.26377 3.12816 2.82365 3.01474L2.33613 2.89465C1.82829 2.76789 0.900651 2.47434 0.900651 1.63372C0.900651 0.833132 1.7335 0.332764 2.72208 0.332764C3.71067 0.332764 4.37424 0.826461 4.56383 1.36019L3.75129 1.67375C3.58201 1.32016 3.21637 1.1 2.695 1.1C2.17362 1.1 1.82829 1.30014 1.82829 1.56701C1.82829 1.93394 2.45124 2.10073 2.81011 2.18746L3.35857 2.33424C3.87317 2.461 4.73311 2.68116 4.73311 3.52178C4.73311 4.3624 3.94766 4.92948 2.80334 4.92948L2.81011 4.92281ZM7.33999 4.82941V0.426166H8.23377V2.24084H10.8136V0.426166H11.7074V4.82941H10.8136V3.05477H8.23377V4.82941H7.33999ZM17.0498 4.92281C15.5669 4.92281 14.3413 3.98879 14.3413 2.63446C14.3413 1.28013 15.5534 0.339435 17.0498 0.339435C18.5462 0.339435 19.7515 1.30014 19.7515 2.63446C19.7515 3.96878 18.553 4.92281 17.0498 4.92281ZM15.2757 2.63446C15.2757 3.52178 16.0815 4.13556 17.0565 4.13556C18.0316 4.13556 18.817 3.49509 18.817 2.63446C18.817 1.77383 18.0519 1.12668 17.0565 1.12668C16.0612 1.12668 15.2757 1.76048 15.2757 2.63446ZM24.3558 4.92281C22.724 4.92281 22.3448 3.8687 22.3448 3.10147V0.426166H23.2318V3.03475C23.2318 3.67523 23.5568 4.13556 24.3626 4.13556C25.1683 4.13556 25.4934 3.67523 25.4934 3.03475V0.426166H26.3871V3.10147C26.3871 3.84202 26.0486 4.92281 24.3626 4.92281H24.3558ZM30.4363 1.20007H28.7706V0.426166H32.989V1.20007H31.3233V4.82941H30.443V1.1934L30.4363 1.20007ZM44.466 4.92281C42.9832 4.92281 41.7576 3.98879 41.7576 2.63446C41.7576 1.28013 42.9696 0.339435 44.466 0.339435C45.9625 0.339435 47.1677 1.30014 47.1677 2.63446C47.1677 3.96878 45.9692 4.92281 44.466 4.92281ZM42.692 2.63446C42.692 3.52178 43.4978 4.13556 44.4728 4.13556C45.4479 4.13556 46.2333 3.49509 46.2333 2.63446C46.2333 1.77383 45.4682 1.12668 44.4728 1.12668C43.4775 1.12668 42.692 1.76048 42.692 2.63446ZM51.7721 4.92281C50.1402 4.92281 49.7611 3.8687 49.7611 3.10147V0.426166H50.6481V3.03475C50.6481 3.67523 50.9731 4.13556 51.7789 4.13556C52.5846 4.13556 52.9096 3.67523 52.9096 3.03475V0.426166H53.8034V3.10147C53.8034 3.84202 53.4649 4.92281 51.7789 4.92281H51.7721ZM56.6947 4.82941V0.426166H58.7193C59.2271 0.426166 60.561 0.552926 60.561 1.84054C60.561 2.66782 59.9651 3.05477 59.3083 3.18153C59.762 3.7286 60.2157 4.27567 60.6693 4.82274H59.6672L58.3604 3.24824H57.5952V4.82274H56.7015L56.6947 4.82941ZM57.5885 2.5077H58.5703C59.051 2.5077 59.6266 2.38761 59.6266 1.86056C59.6266 1.3335 59.0443 1.18673 58.5703 1.18673H57.5885V2.5077ZM70.115 4.82941V0.426166H72.1396C72.7084 0.426166 73.9814 0.552926 73.9814 1.8272C73.9814 3.10147 72.6813 3.27493 72.187 3.27493H71.0156V4.82941H70.1218H70.115ZM71.0088 2.46767H71.9906C72.4714 2.46767 73.0469 2.37427 73.0469 1.8272C73.0469 1.28013 72.4646 1.20007 71.9906 1.20007H71.0088V2.461V2.46767ZM75.5319 4.82941L77.5971 0.426166H78.6263L80.6915 4.82941H79.7436C79.554 4.44246 79.3644 4.06218 79.168 3.67523H77.0148C76.8252 4.06218 76.6356 4.44246 76.4393 4.82941H75.5184H75.5319ZM77.4143 2.86796H78.7889C78.5586 2.40095 78.3216 1.91393 78.1117 1.44025H78.0914C77.9018 1.85388 77.6581 2.37427 77.4075 2.86796H77.4143ZM84.6391 4.92948C83.6573 4.92948 82.8109 4.46914 82.5401 3.62852L83.3729 3.36166C83.5828 3.98212 84.1042 4.16892 84.6256 4.16892C85.1469 4.16892 85.6209 3.98212 85.6209 3.62852C85.6209 3.24824 85.0928 3.13483 84.6526 3.02141L84.1651 2.90132C83.6573 2.77456 82.7296 2.48101 82.7296 1.64039C82.7296 0.846475 83.5625 0.339435 84.5511 0.339435C85.5397 0.339435 86.2032 0.833132 86.3928 1.36686L85.5803 1.68042C85.411 1.32683 85.0454 1.10667 84.524 1.10667C84.0026 1.10667 83.6573 1.30681 83.6573 1.57368C83.6573 1.94061 84.2802 2.1074 84.6391 2.19413L85.1876 2.34091C85.7022 2.46767 86.5621 2.68783 86.5621 3.52845C86.5621 4.36907 85.7766 4.93615 84.6323 4.93615L84.6391 4.92948ZM90.8753 4.92948C89.8935 4.92948 89.0471 4.46914 88.7763 3.62852L89.6091 3.36166C89.819 3.98212 90.3404 4.16892 90.8618 4.16892C91.3831 4.16892 91.8571 3.98212 91.8571 3.62852C91.8571 3.24824 91.329 3.13483 90.8888 3.02141L90.4013 2.90132C89.8935 2.77456 88.9658 2.48101 88.9658 1.64039C88.9658 0.846475 89.7987 0.339435 90.7873 0.339435C91.7759 0.339435 92.4394 0.833132 92.629 1.36686L91.8165 1.68042C91.6472 1.32683 91.2816 1.10667 90.7602 1.10667C90.2388 1.10667 89.8935 1.30681 89.8935 1.57368C89.8935 1.94061 90.5164 2.1074 90.8753 2.19413L91.4238 2.34091C91.9384 2.46767 92.7983 2.68783 92.7983 3.52845C92.7983 4.36907 92.0129 4.93615 90.8685 4.93615L90.8753 4.92948ZM95.4052 4.83608V0.426166H96.299V4.82941H95.4052V4.83608ZM101.648 4.92948C100.165 4.92948 98.9397 3.99546 98.9397 2.64113C98.9397 1.2868 100.152 0.346107 101.648 0.346107C103.145 0.346107 104.35 1.30681 104.35 2.64113C104.35 3.97545 103.151 4.92948 101.648 4.92948ZM99.8741 2.64113C99.8741 3.52845 100.68 4.14224 101.655 4.14224C102.63 4.14224 103.415 3.50176 103.415 2.64113C103.415 1.7805 102.65 1.13335 101.655 1.13335C100.66 1.13335 99.8741 1.76715 99.8741 2.64113ZM106.991 4.83608V0.426166H107.925C108.738 1.34684 109.652 2.34758 110.505 3.35499H110.525V0.426166H111.405V4.82941H110.478C109.625 3.87537 108.765 2.96137 107.905 1.96063H107.884V4.82941H106.991V4.83608ZM122.158 1.20674H120.492V0.426166H124.711V1.20007H123.045V4.82941H122.165V1.1934L122.158 1.20674ZM129.328 4.92948C127.846 4.92948 126.62 3.99546 126.62 2.64113C126.62 1.2868 127.832 0.346107 129.328 0.346107C130.825 0.346107 132.03 1.30681 132.03 2.64113C132.03 3.97545 130.832 4.92948 129.328 4.92948ZM127.554 2.64113C127.554 3.52845 128.36 4.14224 129.335 4.14224C130.31 4.14224 131.096 3.50176 131.096 2.64113C131.096 1.7805 130.331 1.13335 129.335 1.13335C128.34 1.13335 127.554 1.76715 127.554 2.64113ZM137.007 4.92948C135.463 4.92948 134.366 3.97545 134.366 2.64113C134.366 1.1934 135.612 0.346107 137.075 0.346107C138.212 0.346107 139.167 0.913191 139.512 1.72712L138.693 2.04069C138.409 1.5203 137.853 1.14002 137.075 1.14002C136.1 1.14002 135.301 1.70711 135.301 2.66782C135.301 3.78197 136.33 4.14891 137.163 4.14891C137.996 4.14891 138.632 3.80199 138.747 3.24824H137.224V2.56774H139.641V4.84942H138.957C138.943 4.62926 138.93 4.40243 138.91 4.18227H138.876C138.497 4.67596 137.874 4.94283 137.007 4.94283V4.92948ZM142.41 4.83608V0.426166H145.877V1.20007H143.297V2.18746H145.735V3.0014H143.297V4.04883H145.945V4.82941H142.404L142.41 4.83608ZM149.791 1.20674H148.125V0.426166H152.337V1.20007H150.671V4.82941H149.791V1.1934V1.20674ZM154.774 4.83608V0.426166H155.668V2.24084H158.248V0.426166H159.142V4.82941H158.248V3.05477H155.668V4.82941H154.774V4.83608ZM162.087 4.83608V0.426166H165.561V1.20007H162.981V2.18746H165.419V3.0014H162.981V4.04883H165.628V4.82941H162.087V4.83608ZM168.31 4.83608V0.426166H170.334C170.842 0.426166 172.169 0.552926 172.169 1.84054C172.169 2.66782 171.574 3.05477 170.917 3.18153C171.37 3.7286 171.824 4.27567 172.278 4.82274H171.276L169.969 3.24824H169.204V4.82274H168.31V4.83608ZM169.204 2.51437H170.185C170.666 2.51437 171.242 2.39428 171.242 1.86723C171.242 1.34017 170.659 1.1934 170.185 1.1934H169.204V2.51437Z" fill="white"/>
</g>
<defs>
<clipPath id="clip0_401_13588">
<rect width="172" height="59.3103" fill="white" transform="translate(0.5 0.344849)"/>
</clipPath>
</defs>
</svg>
